<?xml version="1.0" encoding="UTF-8" standalone="no"?>
<svg
   xmlns:dc="http://purl.org/dc/elements/1.1/"
   xmlns:cc="http://creativecommons.org/ns#"
   xmlns:rdf="http://www.w3.org/1999/02/22-rdf-syntax-ns#"
   xmlns:svg="http://www.w3.org/2000/svg"
   xmlns="http://www.w3.org/2000/svg"
   xmlns:sodipodi="http://sodipodi.sourceforge.net/DTD/sodipodi-0.dtd"
   xmlns:inkscape="http://www.inkscape.org/namespaces/inkscape"
   inkscape:version="1.0 (4035a4fb49, 2020-05-01)"
   sodipodi:docname="next.svg"
   id="svg4"
   xml:space="preserve"
   viewBox="0 0 42.199999 50.399999"
   y="0px"
   x="0px"
   version="1.1"
   fill="#000000"
   width="126.6"
   height="151.2"><metadata
     id="metadata10"><rdf:RDF><cc:Work
         rdf:about=""><dc:format>image/svg+xml</dc:format><dc:type
           rdf:resource="http://purl.org/dc/dcmitype/StillImage" /><dc:title></dc:title></cc:Work></rdf:RDF></metadata><defs
     id="defs8" /><sodipodi:namedview
     inkscape:current-layer="svg4"
     inkscape:window-maximized="0"
     inkscape:window-y="608"
     inkscape:window-x="1010"
     inkscape:cy="76.8"
     inkscape:cx="13.8"
     inkscape:zoom="3.2466667"
     fit-margin-bottom="0"
     fit-margin-right="0"
     fit-margin-left="0"
     fit-margin-top="0"
     showgrid="false"
     id="namedview6"
     inkscape:window-height="1208"
     inkscape:window-width="1796"
     inkscape:pageshadow="2"
     inkscape:pageopacity="0"
     guidetolerance="10"
     gridtolerance="10"
     objecttolerance="10"
     borderopacity="1"
     bordercolor="#666666"
     pagecolor="#ffffff" /><path
     style="fill:#ffffff"
     sodipodi:nodetypes="ssccssccscsccssssscccccc"
     id="path2"
     d="m 39.3,0 c -1.6,0 -3,1.3 -3,3 V 20.3 L 4.6,0.5 C 3.7,-0.1 2.5,-0.1 1.6,0.4 0.7,0.9 0.1,1.9 0.1,3 V 14.1 L 0,36.2 v 11.1 c 0,1.1 0.6,2.1 1.5,2.6 0.5,0.2 0.9,0.4 1.4,0.4 0.5,0 1.1,-0.1 1.6,-0.4 L 36.2,30.1 v 17.3 c 0,1.6 1.3,3 3,3 1.7,0 3,-1.3 3,-3 V 3 C 42.2,1.4 40.9,0 39.3,0 Z M 6,41.9 V 30.8 19.4 8.3 l 26.9,16.8 z" /></svg>
