<svg height='300px' width='300px' fill="#FFF" xmlns="http://www.w3.org/2000/svg" xmlns:xlink="http://www.w3.org/1999/xlink" xml:space="preserve" version="1.1" style="shape-rendering:geometricPrecision;text-rendering:geometricPrecision;image-rendering:optimizeQuality;" viewBox="0 0 333 333" x="0px" y="0px" fill-rule="evenodd" clip-rule="evenodd"><defs><style type="text/css">
   
    .fil0 {fill:#FFF}
   
  </style></defs><g><path class="fil0" d="M168 99c46,1 83,38 83,84 0,47 -38,84 -84,84 -47,0 -84,-37 -84,-84 0,-11 2,-21 6,-31l-54 -22c-6,16 -10,34 -10,53 0,79 63,142 142,142 78,0 141,-63 141,-142 0,-78 -62,-141 -140,-142l0 -33 -90 61 90 61 0 -31z"></path></g></svg>
