<?xml version="1.0" encoding="UTF-8" standalone="no"?>
<svg
   xmlns:dc="http://purl.org/dc/elements/1.1/"
   xmlns:cc="http://creativecommons.org/ns#"
   xmlns:rdf="http://www.w3.org/1999/02/22-rdf-syntax-ns#"
   xmlns:svg="http://www.w3.org/2000/svg"
   xmlns="http://www.w3.org/2000/svg"
   xmlns:sodipodi="http://sodipodi.sourceforge.net/DTD/sodipodi-0.dtd"
   xmlns:inkscape="http://www.inkscape.org/namespaces/inkscape"
   height="150.49007"
   width="203.39999"
   fill="#ffffff"
   version="1.1"
   x="0px"
   y="0px"
   viewBox="0 0 67.799998 50.163356"
   xml:space="preserve"
   id="svg4"
   sodipodi:docname="icon-rewind.svg"
   inkscape:version="1.0 (4035a4fb49, 2020-05-01)"><metadata
     id="metadata10"><rdf:RDF><cc:Work
         rdf:about=""><dc:format>image/svg+xml</dc:format><dc:type
           rdf:resource="http://purl.org/dc/dcmitype/StillImage" /><dc:title /></cc:Work></rdf:RDF></metadata><defs
     id="defs8" /><sodipodi:namedview
     inkscape:document-rotation="0"
     pagecolor="#ffffff"
     bordercolor="#666666"
     borderopacity="1"
     objecttolerance="10"
     gridtolerance="10"
     guidetolerance="10"
     inkscape:pageopacity="0"
     inkscape:pageshadow="2"
     inkscape:window-width="2160"
     inkscape:window-height="1456"
     id="namedview6"
     showgrid="false"
     fit-margin-top="0"
     fit-margin-left="0"
     fit-margin-right="0"
     fit-margin-bottom="0"
     inkscape:zoom="3.2466667"
     inkscape:cx="96.9"
     inkscape:cy="72.6"
     inkscape:window-x="915"
     inkscape:window-y="398"
     inkscape:window-maximized="0"
     inkscape:current-layer="svg4" /><path
     d="m 1.4,27.6 35.5,22.1 c 0.9,0.6 2.1,0.6 3,0.1 0.9,-0.5 1.5,-1.5 1.5,-2.6 V 36.1 l 21.9,13.6 c 0.9,0.6 2.1,0.6 3,0.1 0.9,-0.5 1.5,-1.5 1.5,-2.6 V 3 C 67.8,1.9 67.2,0.9 66.3,0.4 65.8,0.2 65.4,0 64.9,0 64.4,0 63.8,0.1 63.3,0.4 L 41.4,14.1 V 3 C 41.4,1.9 40.8,0.9 39.9,0.4 39.4,0.2 39,0 38.5,0 38,0 37.4,0.1 36.9,0.4 L 1.4,22.6 C 0.5,23.1 0,24.1 0,25.1 c 0,1 0.6,2 1.4,2.5 z M 61.9,8.3 V 41.9 L 41.4,29.1 V 21 Z m -26.4,0 V 19.4 30.8 41.9 L 8.6,25.1 Z"
     id="path2"
     style="fill:#ffffff" /></svg>
